<svg xmlns="http://www.w3.org/2000/svg" viewBox="0 0 597.85 1401.02"><defs><style>.cls-1{fill:#fff;}</style></defs><title>embleme_miamour_blanc</title><g id="Mode_Isolation" data-name="Mode Isolation"><path class="cls-1" d="M1058.56,477c0-316.62-85.29-378-142.66-378-79.26,0-116.25,197.88-116.25,308.7,0-110.82-37-308.7-116.25-308.7C626,99,540.73,160.34,540.73,477a1074.75,1074.75,0,0,0,29.93,253.15c-44.53,311.14-69.93,387.3-69.93,564.11,0,134.56,34,205.8,91.33,205.8H716.61c-4.47-45-25.88-61-38.77-61.33q24.36-25.47,32-116.77c-19.94,5.41-36.13,30.54-45.13,64.89a266.53,266.53,0,0,0,2.1-33.23c0-41.55-12.07-69.26-36.23-73.21,11.32,19.78,15.1,49.47,13.59,81.13-1.51,33.64-9.81,81.13-31.71,81.13-18.87,0-34-29.68-34-150.39,0-128.09,22.59-293.4,38.22-411.31,65.26,179.24,153.35,334.66,182.95,534,29.6-199.34,117.69-354.76,182.94-534,15.64,117.91,38.23,283.22,38.23,411.31,0,120.71-15.1,150.39-34,150.39-21.89,0-30.19-47.49-31.7-81.13-1.51-31.66,2.26-61.35,13.59-81.13-24.16,4-36.24,31.66-36.24,73.21a268.46,268.46,0,0,0,2.1,33.23c-9-34.35-25.18-59.48-45.12-64.89q7.62,91.3,32,116.77c-12.89.38-34.3,16.37-38.78,61.33h124.55c57.37,0,91.34-71.24,91.34-205.8,0-176.81-25.4-253-69.94-564.11A1074.23,1074.23,0,0,0,1058.56,477ZM799.65,1335.77c-6-243.39-187.21-534.28-187.21-898.39,0-152.37,22.65-273.08,80.77-273.08,60.39,0,88.32,182.05,88.32,279,0,81.13-13.58,110.81-30.95,110.81s-21.89-29.68-17.36-57.38c-9.06,0-18.11,27.7-18.11,55.4,0,33.64,12.07,67.28,34.72,67.28,21.89,0,30.19-27.7,37.74-59.36-2.26,21.77-8.3,57.39-8.3,89,0,37.59,6.79,67.28,20.38,110.81C813.24,716.4,820,686.71,820,649.12c0-31.66-6-67.28-8.3-89,7.55,31.66,15.85,59.36,37.74,59.36,22.65,0,34.72-33.64,34.72-67.28,0-27.7-9.06-55.4-18.11-55.4,4.53,27.7,0,57.38-17.37,57.38s-30.94-29.68-30.94-110.81c0-97,26.42-279,87.56-279,58.12,0,81.52,120.71,81.52,273.08C986.85,801.49,805.69,1092.38,799.65,1335.77Z" transform="translate(-500.73 -99)"/></g></svg>