<svg id="Calque_1" data-name="Calque 1" xmlns="http://www.w3.org/2000/svg" viewBox="0 0 1162.49 380.28"><defs><style>.cls-1{fill:#fff;}</style></defs><title>logo-miamour-blanc</title><path class="cls-1" d="M1168.41,566.53c-5.52,0-9.15,11.5-9.15,24,0,14,3.44,22.48,8.2,22.48,3.24,0,4.58-6,4.58-6l.67,1.41c-1.54,7-4.12,17.08-14.59,17.08-14.87,0-25.35-39.48-36.41-78l.56-1c3.11,10.49,6.82,17.46,12.21,17.46,8.2,0,14.11-12.49,14.49-30.48.19-11-1.33-23-5.72-32,.38,28-3.24,40.48-12.2,40.48-7.07,0-10.57-6.24-14.57-19-7-24.13-14.35-47.34-23.2-65.05,19.12-25.2,29-74.78,29-111.29,0-58-11.62-90-38.5-90.45-18.53-.45-30.25,22.73-38.11,56.73.7-16.93.93-34.87.37-50.23h-38.7v7.5c16.39,0,22.3,15.49,22.49,52.47.38,81.45-14.1,137.91-14.1,207.87,0,46,7.62,69,16.58,73v2c-7,0-12.2-3-20.2-3v10h47.27V603c-14.3,0-24.59-21-24.59-68,0-17.13,1.68-45.25,4.08-72.76,8.76-92.73,21.34-194.58,45.29-194.58,18.11,0,21.35,38,20.59,75-.64,31.81-8.64,75.5-19.92,100.87-7.87-11.16-16.87-17.92-27.55-17.92-5,0-10.67,6.5-10.67,23,0,23.49,12.39,25.49,19.63,25.49a28.34,28.34,0,0,0,17.07-6c2,5.26,4,11,5.89,17.09l-.08-.09c3.24,11,5.14,27,3.62,43.47-1.91,21.49-8.58,28.49-19.06,23.49,2.28,13,6.29,21,10.48,22.49,8.58,3,15.63-9.5,16.58-31a123.47,123.47,0,0,0-4.12-37.38c.23-.47.42-.88.5-1.1,3.81,14,7.06,33,10.87,48.47,12.2,49.47,25.35,83,49,83,14.29,0,21.16-19.49,21.16-42.47C1178.14,576,1173.75,566.53,1168.41,566.53ZM1066.24,464.09c-8,0-15.06-3-15.06-15,0-7.49,1.91-12,5.72-12,8.31,0,15.11,7.24,21,18.85C1074.24,461.11,1070.3,464.09,1066.24,464.09Z" transform="translate(-15.65 -256.21)"/><path class="cls-1" d="M108.67,270.21c9.34,0,13,14,20.4,14,6.1,0,10.29-7.5,12-21.49H84.27v5c7.82,0,11.25,7,11.82,20,.57,15-2.48,37.47-4.77,51C84.84,376.64,74,411.62,74,440.11c0,22,5.72,33.48,13.34,33.48h52.42c-1-10.49-5.73-16.39-9-17.35q5.09-7.46,6.53-27.63c-4.29,1.17-7.89,5.95-10.27,12.7.11-1.57.17-3.15.17-4.7,0-10.5-3-17.49-9.15-18.49,2.29,4.5,3,11.49,2.86,19-.57,22.48-10.1,27-18.11,27-10.29,0-16-10-16-30.48,0-35,6.86-72,21.16-72,6.29,0,9.15,9.5,8,27.49,8.39-22.49,5.72-46-3.62-46-8,0-13.34,11.5-18.68,25l-.38-1c2.48-8,7.43-24,10.1-37C106.57,314.18,108.67,292.69,108.67,270.21Z" transform="translate(-15.65 -256.21)"/><path class="cls-1" d="M81.41,492.08c-7.81,0-12,14.49-12,28.48,0,15,4,25.48,8.77,25.48,5.34,0,9-7,9-20.48,0-8.5-1.91-13.5-1.91-13.5l.48-1.25a2.6,2.6,0,0,0,.1.25c2.85,7.5,5,16,5,30.49,0,26-7,56.46-22.68,56.46-13.73,0-24.21-10-24.21-49.47C43.86,474.59,78,370.65,78,290.19a229.47,229.47,0,0,0-1.33-27.48H35.09v7.5c15.06,0,25.54,12.49,25.54,60s-13.15,74-21.73,74c-10.67,0-16.77-15.49-16.77-43.48-4.39,8.5-6.48,21.49-6.48,32.48,0,23,6.67,37.48,15.06,37.48,8.57,0,17-17,19.44-25l.57,1C30.9,504.07,22.13,527.06,22.13,565.53c0,25,5.14,47,18.3,47H94s7.44-22,7.44-61.46C101.43,518.56,93,491.58,81.41,492.08Z" transform="translate(-15.65 -256.21)"/><path class="cls-1" d="M315.78,354.16c0-80-21.54-95.45-36-95.45-20,0-29.36,50-29.36,78,0-28-9.34-78-29.36-78-14.48,0-36,15.49-36,95.45a271,271,0,0,0,7.56,63.92c-11.25,78.58-17.67,97.81-17.67,142.46,0,34,8.58,52,23.07,52h31.45c-1.13-11.35-6.53-15.38-9.79-15.48q6.15-6.43,8.08-29.49c-5,1.37-9.13,7.71-11.4,16.39a67.63,67.63,0,0,0,.53-8.39c0-10.5-3-17.49-9.15-18.49,2.86,5,3.81,12.49,3.43,20.49-.38,8.49-2.48,20.48-8,20.48-4.77,0-8.58-7.49-8.58-38,0-32.35,5.7-74.1,9.65-103.87,16.48,45.26,38.73,84.51,46.2,134.85,7.47-50.34,29.72-89.59,46.2-134.85,3.95,29.77,9.65,71.52,9.65,103.87,0,30.48-3.81,38-8.58,38-5.52,0-7.62-12-8-20.48-.38-8,.57-15.5,3.43-20.49-6.1,1-9.15,8-9.15,18.49a67.63,67.63,0,0,0,.53,8.39c-2.27-8.68-6.36-15-11.4-16.39Q275,590.59,281.16,597c-3.26.1-8.66,4.13-9.79,15.48h31.45c14.49,0,23.07-18,23.07-52,0-44.65-6.42-63.88-17.67-142.46A271,271,0,0,0,315.78,354.16Zm-15.56-14.47c.07-1.27.18-2.44.31-3.52Zm-100-3.52c.13,1.08.24,2.25.31,3.52ZM250.4,571c-1.52-61.46-47.27-134.92-47.27-226.87,0-38.47,5.71-69,20.39-69,15.25,0,22.31,46,22.31,70.46,0,20.49-3.44,28-7.82,28s-5.53-7.5-4.38-14.5c-2.29,0-4.58,7-4.58,14,0,8.49,3,17,8.77,17,5.53,0,7.62-7,9.53-15-.57,5.5-2.1,14.5-2.1,22.49,0,9.5,1.72,17,5.15,28,3.43-11,5.15-18.48,5.15-28,0-8-1.53-17-2.1-22.49,1.91,8,4,15,9.53,15,5.72,0,8.77-8.5,8.77-17,0-7-2.29-14-4.58-14,1.15,7,0,14.5-4.38,14.5s-7.82-7.5-7.82-28c0-24.48,6.68-70.46,22.12-70.46,14.67,0,20.58,30.49,20.58,69C297.67,436.11,251.93,509.57,250.4,571Z" transform="translate(-15.65 -256.21)"/><path class="cls-1" d="M400,414.62c0-23-6.67-37.48-15.06-37.48-5.53,0-11,7.07-14.82,14.23l-.43-2.23c4.95-8,7.81-16.49,10.1-31.49,3.43-23,3.43-64,2.29-94.94h-9.15c-10.87,0-14.87-6-20.4-6-8,0-11.82,10.5-11.82,29.49,0,12.49,3.63,22,8.2,22,4.38,0,7.82-9.49,7.82-20,0-8.5-1.15-17-5.34-18.49v-2c2.67,0,10.48,6,12.58,38,1.33,21,1.14,40-1.33,84.95-2.86,50.47-10.87,83.95-10.87,139.91,0,46,7.62,69,16.58,73v2c-7,0-12.2-3-20.2-3v10h47.27V603c-14.29,0-24.4-19-24.4-66,0-20,1-48,3.82-79.45,1.33-14.5-5.53-25-5.53-37.48,0-10.5,2.09-20,9-20,9.91,0,16.58,14.49,15.25,47C397.89,438.61,400,425.61,400,414.62Z" transform="translate(-15.65 -256.21)"/><path class="cls-1" d="M712.17,270.21v-7.5h-36c0,83-33.74,206.88-37.36,269.34-2.67-43.47-12.58-80.45-17.73-101.44l.66-1.38c2,7.95,4.93,14.87,8.49,14.87,5.72,0,9.34-7.49,9.34-22,0-9.5-2.47-16.49-5.91-20.49a59,59,0,0,1,1.53,14c0,9-2.29,14-5.72,14-4.12,0-6.85-8.44-9.71-21.93-10.13-50.61-17-96.67-17-145H566.54v7.5c14.67,0,21.35,12.49,21.35,43,0,55-27.26,177.4-27.26,244.36,0,34,8.77,55,23.25,55h31.45c-1.13-11.35-6.53-15.38-9.79-15.48q6.15-6.43,8.08-29.49c-5,1.37-9.12,7.71-11.4,16.39a67.63,67.63,0,0,0,.53-8.39c0-10.5-3-17.49-9.15-18.49,2.86,5,3.82,12.49,3.44,20.49-.39,8.49-2.48,20.48-8,20.48-4.77,0-8.58-10-8.58-40.47,0-42.6,10.61-119.33,17-185.91,6.3,32.6,18.51,72.69,26,103.65,2.61,11.1,3.91,20.38,2.92,30.79-.95,10-3.62,13.49-6.67,13-3.43-.5-6.1-5-7.63-11.49-.19,14,2.48,26,8,27.48,4.77,1.5,8.58-6.5,9.34-18a91.21,91.21,0,0,0-.63-18.49l.63-1c5.4,30.75,9.53,67.69,9.54,69.39,5.56-71.92,32.88-145.56,41.89-199.35,6.35,67.49,17.38,146.48,17.38,189.93,0,30.48-3.81,40.47-8.57,40.47-5.53,0-7.63-12-8-20.48-.38-8,.57-15.5,3.43-20.49-6.1,1-9.15,8-9.15,18.49a67.63,67.63,0,0,0,.53,8.39c-2.27-8.68-6.36-15-11.39-16.39Q667,590.59,673.16,597c-3.25.1-8.66,4.13-9.79,15.48h31.45c14.49,0,23.26-21,23.26-55,0-67-27.26-189.39-27.26-244.36C690.82,282.7,697.49,270.21,712.17,270.21Zm-90,199.88c.33,1.32.65,2.6,1,3.87Z" transform="translate(-15.65 -256.21)"/><path class="cls-1" d="M535.42,386.64c0-37-11.44-59-25.73-59-7.48,0-12.88,8-16.44,20.91a517.55,517.55,0,0,1-7.39-85.87H440.49v7.5c14.68,0,21.35,14,21.35,43a334.83,334.83,0,0,1-3.11,45.1c-3.44-18.32-9.63-30.61-19.38-30.61-13.73,0-25.35,22-25.35,59,0,28.22,5.58,51.76,18.62,79.62C423,501,414.76,534.1,414.76,561.53c0,31.49,5.53,51,18.3,51h20.58V603c-15.05,0-18.1-18-18.1-42a293.32,293.32,0,0,1,6.1-57.47q1.47-7.27,2.89-14.17,2.1,3.77,4.35,7.67c7.81,13.49,21.16,43.48,25.35,70,2.86-18,6.86-35.48,13.35-49.47l.45,1.2c-2.52,5.88-4.46,13.23-4.46,24.29s3.43,18,7.63,18.48c3.81.5,7.24-4.49,8.57-13-7.24,3.5-11.43-4.49-10.86-20a41.9,41.9,0,0,1,2.81-14.31c3-6.86,6.19-12.74,8.63-17.17,2.92-5.32,5.64-10.4,8.17-15.3,1.38,6.51,2.78,13.26,4.22,20.3a307.54,307.54,0,0,1,6.1,59c0,24-3.62,42-18.68,42v9.49h20.58c12.77,0,18.3-19.48,18.3-51,0-30.51-9.1-65.69-19.38-103C530.49,433.65,535.42,412.45,535.42,386.64Zm-25.73-49c11.63,0,18.68,15.49,18.68,46,0,20.64-5.8,38.62-14.08,55.46-4.52-16.41-9-33.13-12.8-50-2.08-9.27-4.16-18.76-6.09-28.78C498.3,346.07,502.7,337.67,509.69,337.67Zm-88.64,46c0-30.48,7.24-46,18.3-46,9.21,0,14.28,13.83,17.08,35.17q-.94,5.24-2,10.3c-4.4,20.58-10.2,41.64-16,62.4C428.45,426.92,421.05,407,421.05,383.64Zm61,109.43a69.65,69.65,0,0,0-7.82,16.38c-2.78-7.7-9.59-20.78-14.68-28.87-3.29-5.25-6.63-10.48-9.89-15.75C464.38,395,474,354.09,475.57,300.06c2.9,53.6,13.44,92.69,27.9,158.36-2.19,3.49-4.94,7.05-8.65,6.67-5-.5-7.63-12-6.86-26-2.48,2.5-3.82,10-4.2,14.49-.95,11.49,1.72,19.49,5.15,22.48,2.86,2.35,6.4-1,8.4-4.35l.37,1.36C493.87,480.08,488.53,483.08,482.05,493.07Z" transform="translate(-15.65 -256.21)"/><path class="cls-1" d="M639,567V567S639,567,639,567Z" transform="translate(-15.65 -256.21)"/><path class="cls-1" d="M823.39,257.21c-22.11,0-32.4,46.48-32.4,84.45,0-38-10.29-84.45-32.41-84.45-23.06,0-38.88,30-38.88,110.94,0,100.44,58.9,175.4,71.29,258.85,12.39-83.45,71.29-158.41,71.29-258.85C862.28,287.2,846.46,257.21,823.39,257.21ZM792,606c-1.53-61.47-54.14-137.92-54.14-240.86,0-52,6.48-89.45,24.21-89.45,17.35,0,25.35,40.48,25.35,75,0,20.49-3.43,28-7.81,28s-5.53-7.49-4.39-14.49c-2.28,0-4.57,7-4.57,14,0,8.5,3.05,17,8.77,17,5.53,0,7.62-7,9.53-15-.57,5.5-2.1,14.49-2.1,22.49,0,9.49,1.72,17,5.15,28,3.43-11,5.15-18.49,5.15-28,0-8-1.53-17-2.1-22.49,1.91,8,4,15,9.53,15,5.72,0,8.77-8.49,8.77-17,0-7-2.29-14-4.58-14,1.15,7,0,14.49-4.38,14.49s-7.82-7.49-7.82-28c0-34.48,8-75,25.36-75,17.72,0,24.21,37.48,24.21,89.45C846.13,468.09,793.51,544.54,792,606Z" transform="translate(-15.65 -256.21)"/><path class="cls-1" d="M975.37,526.56c0-57.47,8.76-122.43,8.76-185.9,0-41-1.9-58-4.57-78H941.25v7.5c19.25,0,25.54,16,25.54,62.46,0,67-9.15,108.44-9.15,154.41,0,22.49,9.34,14.49,9.34,34.48v1.36C966.84,553.4,949.74,598,929.81,598c-23.45,0-30.5-37.47-30.5-80,0-36,7.05-60,1.52-71-4-8-5.52-13-5.52-23.48,0-13,3.81-23.49,9.91-23.49.63,0,1.63.11,2.76.14,8.89,1.54,13.75,16.16,12.49,46.83,4.38-8.49,6.48-21.49,6.48-32.48,0-23-6.67-37.48-15.06-37.48-5.08,0-10.1,6-13.85,12.49l-.64-2c5-8,7.06-15,9.34-30,3.43-23,2.48-64,1.34-94.94h-5.72c-12.39,0-17.35-6-22.88-6-8,0-11.81,10.5-11.81,29.49,0,12.49,3.62,22,8.19,22,4.39,0,7.82-9.49,7.82-20,0-8.5-1.15-17-5.34-18.49v-2c2.67,0,13.34,5.49,13.34,46,0,71.46-8.76,132.42-8.76,179.39,0,82.46,14.67,123.93,45.55,124.43,12.3.27,23.65-12.83,31.49-34.92a243.79,243.79,0,0,0,1.87,29.92h38.89v-8C981.85,604.51,975.37,573,975.37,526.56Z" transform="translate(-15.65 -256.21)"/></svg>